<svg width="512" height="512"><path fill="#f0f0f0" d="M429.752 451.84a6.068 6.068 0 0 0-6.067 6.063v12.126a6.062 6.062 0 0 0 6.067 6.058h64.175a6.058 6.058 0 0 0 6.063-6.058v-12.126a6.065 6.065 0 0 0-6.063-6.063h-64.175z"/><path fill="#ddd" d="M429.752 451.84a6.068 6.068 0 0 0-6.067 6.063v12.126a6.062 6.062 0 0 0 6.067 6.058h33.024v-3.397c0-9.493-5.913-17.605-14.259-20.851h-18.765z"/><path fill="#eee" d="m227.439 158.157-120.401 209.63a30.392 30.392 0 0 0-4.023 15.096c0 16.738 13.573 30.31 30.306 30.31h240.798c5.295 0 10.5-1.391 15.091-4.024 14.515-8.337 19.529-26.863 11.192-41.382l-120.401-209.63a30.262 30.262 0 0 0-11.187-11.187 30.137 30.137 0 0 0-15.065-4.032c-10.5 0-20.706 5.462-26.309 15.219z"/><path fill="#fff" d="M254.166 226.048c-.542 0-1.083.025-1.621.069-10.991.892-19.174 10.526-18.282 21.521l6.11 75.085c.571 7.027 6.439 12.438 13.491 12.438 7.062 0 12.954-5.401 13.568-12.433l6.592-75.055c.051-.576.077-1.156.077-1.737 0-10.982-8.904-19.887-19.887-19.887h-.047zM241.382 361.903c0 6.89 5.585 12.48 12.48 12.48 6.891 0 12.48-5.589 12.48-12.48 0-6.895-5.589-12.485-12.48-12.485-6.895 0-12.48 5.589-12.48 12.485z"/><path fill="#f5f5f5" d="M446.174 254.844c0 11.712 9.498 21.214 21.218 21.214 11.716 0 21.214-9.502 21.214-21.214 0-11.716-9.498-21.218-21.214-21.218-11.721 0-21.218 9.502-21.218 21.218z"/><path fill="#eee" d="M126.425 72.994c0 6.698 5.427 12.121 12.126 12.121 6.695 0 12.121-5.423 12.121-12.121 0-6.695-5.427-12.121-12.121-12.121-6.698 0-12.126 5.427-12.126 12.121zM32.384 387.102c-4.382 0-7.949 3.563-7.949 7.949s3.567 7.953 7.949 7.953 7.949-3.567 7.949-7.953-3.567-7.949-7.949-7.949zm0 31.799c-13.154 0-23.851-10.701-23.851-23.851s10.697-23.851 23.851-23.851 23.85 10.701 23.85 23.851-10.697 23.851-23.85 23.851z"/></svg>