<svg width="512" height="512"><path fill="#f0f0f0" d="m462.865 445.654-21.807 21.807a5.762 5.762 0 0 0 0 8.145l4.373 4.369a5.752 5.752 0 0 0 8.145 0l21.807-21.803a5.767 5.767 0 0 0 0-8.145l-4.373-4.373a5.763 5.763 0 0 0-4.075-1.685 5.735 5.735 0 0 0-4.07 1.685z"/><path fill="#f0f0f0" d="m447.099 461.418-6.041 6.041a5.762 5.762 0 0 0 0 8.145l20.019 20.019a5.762 5.762 0 0 0 8.145 0l6.041-6.046a5.757 5.757 0 0 0 0-8.141l-20.019-20.019a5.748 5.748 0 0 0-4.075-1.685 5.759 5.759 0 0 0-4.07 1.685z"/><path fill="#ddd" d="m447.228 461.368-21.803 21.807a5.748 5.748 0 0 0 0 8.141l4.369 4.373a5.752 5.752 0 0 0 8.145 0l21.803-21.803a5.762 5.762 0 0 0 0-8.145l-4.369-4.373a5.757 5.757 0 0 0-4.075-1.685 5.75 5.75 0 0 0-4.07 1.685z"/><path fill="#ddd" d="m431.577 445.717-6.041 6.046a5.762 5.762 0 0 0 0 8.145l20.019 20.019c2.253 2.248 5.901 2.248 8.145 0l6.041-6.041a5.762 5.762 0 0 0 0-8.145l-20.019-20.024a5.753 5.753 0 0 0-4.07-1.685 5.779 5.779 0 0 0-4.075 1.685z"/><path fill="#eee" d="M137.638 188.344c-15.906 0-28.796 12.889-28.796 28.796v165.462c0 15.906 12.889 28.796 28.796 28.796h230.349c15.902 0 28.796-12.889 28.796-28.796V217.14c0-15.906-12.894-28.796-28.796-28.796H137.638z"/><path fill="#fff" d="M171.703 281.622v70.971c0 8.96 7.262 16.222 16.222 16.222s16.222-7.262 16.222-16.222v-70.971c0-8.96-7.262-16.226-16.222-16.226s-16.222 7.266-16.222 16.226zM236.591 251.204v101.389c0 8.96 7.262 16.222 16.226 16.222 8.956 0 16.217-7.262 16.217-16.222V251.204c0-8.96-7.262-16.222-16.218-16.222-8.964 0-16.226 7.262-16.226 16.222zM301.478 307.981v44.613c0 8.96 7.262 16.222 16.222 16.222s16.226-7.262 16.226-16.222v-44.613c0-8.956-7.266-16.217-16.226-16.217-8.96 0-16.222 7.262-16.222 16.217z"/><path fill="#f5f5f5" d="M460.13 220.019c0 11.131 9.024 20.151 20.156 20.151s20.156-9.019 20.156-20.151c0-11.131-9.024-20.155-20.156-20.155s-20.156 9.024-20.156 20.155z"/><path fill="#eee" d="M65.651 90.441c0 6.366 5.159 11.52 11.52 11.52 6.358 0 11.516-5.154 11.516-11.52 0-6.358-5.159-11.516-11.516-11.516-6.362 0-11.52 5.159-11.52 11.516zM36.651 387.102c-4.382 0-7.949 3.563-7.949 7.949s3.567 7.953 7.949 7.953 7.949-3.567 7.949-7.953-3.567-7.949-7.949-7.949zm0 31.799c-13.154 0-23.851-10.701-23.851-23.851s10.697-23.851 23.851-23.851S60.502 381.9 60.502 395.05s-10.697 23.851-23.85 23.851z"/></svg>