<svg width="512" height="512"><path fill="#eee" d="M462.734 229.491c0 9.971 8.081 18.048 18.048 18.048 9.971 0 18.048-8.077 18.048-18.048 0-9.967-8.077-18.048-18.048-18.048-9.967 0-18.048 8.081-18.048 18.048zM28.117 399.902c-4.382 0-7.949 3.563-7.949 7.949s3.567 7.953 7.949 7.953 7.949-3.567 7.949-7.953-3.567-7.949-7.949-7.949zm0 31.8c-13.154 0-23.851-10.701-23.851-23.851S14.963 384 28.117 384s23.851 10.701 23.851 23.851-10.697 23.851-23.851 23.851z"/><path fill="#f0f0f0" d="M439.242 460.156a6.017 6.017 0 0 0-6.016 6.016v6.459a6.022 6.022 0 0 0 6.016 6.021h32.218a6.021 6.021 0 0 0 6.016-6.021v-6.459a6.017 6.017 0 0 0-6.016-6.016h-32.217z"/><path fill="#f0f0f0" d="M439.242 460.156a6.017 6.017 0 0 0-6.016 6.016v29.572a6.019 6.019 0 0 0 6.016 6.021h8.926a6.017 6.017 0 0 0 6.021-6.021v-29.572a6.015 6.015 0 0 0-6.021-6.016h-8.926z"/><path fill="#ddd" d="M416.087 460.216a6.013 6.013 0 0 0-6.016 6.012v6.459a6.014 6.014 0 0 0 6.016 6.016h32.214a6.014 6.014 0 0 0 6.016-6.016v-6.459a6.013 6.013 0 0 0-6.016-6.012h-32.214z"/><path fill="#ddd" d="M439.374 437.099a6.014 6.014 0 0 0-6.016 6.016v29.572a6.014 6.014 0 0 0 6.016 6.016h8.926a6.014 6.014 0 0 0 6.016-6.016v-29.572a6.014 6.014 0 0 0-6.016-6.016h-8.926z"/><path fill="#eee" d="M89.746 109.171c0 6.647 5.389 12.032 12.037 12.032 6.643 0 12.032-5.385 12.032-12.032 0-6.639-5.389-12.028-12.032-12.028-6.647 0-12.037 5.389-12.037 12.028zM137.875 190.387c-19.934 0-36.091 16.162-36.091 36.096v142.046c0 19.934 16.158 36.091 36.091 36.091h228.608c19.934 0 36.091-16.158 36.091-36.091V226.483c0-19.934-16.158-36.096-36.091-36.096H137.875z"/><path fill="#fff" d="M251 315.199c-16.84 0-33.668-4.467-48.606-13.393l-51.947-31.04c-7.846-4.685-10.402-14.844-5.718-22.686s14.844-10.398 22.686-5.718l51.951 31.04c19.089 11.405 42.936 11.635 62.238.598l55.608-31.795c7.928-4.54 18.039-1.787 22.575 6.149 4.536 7.932 1.784 18.039-6.152 22.575l-55.608 31.795A94.736 94.736 0 0 1 251 315.2z"/></svg>