<svg width="512" height="512"><path fill="#eee" d="M448.733 209.377c0 10.608 8.599 19.204 19.204 19.204 10.604 0 19.204-8.595 19.204-19.204 0-10.605-8.599-19.204-19.204-19.204-10.604 0-19.204 8.6-19.204 19.204zM45.184 399.902c-4.382 0-7.949 3.563-7.949 7.949s3.567 7.953 7.949 7.953 7.949-3.567 7.949-7.953-3.567-7.949-7.949-7.949zm0 31.8c-13.154 0-23.851-10.701-23.851-23.851S32.03 384 45.184 384s23.85 10.701 23.85 23.851-10.697 23.851-23.85 23.851z"/><path fill="#f0f0f0" d="m468.788 445.204-24.445 24.44a6.457 6.457 0 0 0 0 9.128l4.904 4.897a6.445 6.445 0 0 0 9.128 0l24.437-24.437a6.452 6.452 0 0 0 0-9.128l-4.897-4.901a6.45 6.45 0 0 0-4.568-1.893 6.426 6.426 0 0 0-4.56 1.893z"/><path fill="#f0f0f0" d="m451.118 464.644-6.774 6.778a6.457 6.457 0 0 0 0 9.128l22.442 22.434a6.452 6.452 0 0 0 9.128 0l6.77-6.77a6.452 6.452 0 0 0 0-9.128l-22.434-22.442a6.458 6.458 0 0 0-4.568-1.889c-1.654 0-3.305.63-4.565 1.889z"/><path fill="#ddd" d="m449.837 464.594-24.437 24.44a6.448 6.448 0 0 0 0 9.125l4.901 4.904a6.452 6.452 0 0 0 9.128 0l24.437-24.445a6.441 6.441 0 0 0 0-9.125l-4.897-4.901a6.446 6.446 0 0 0-4.568-1.889c-1.651 0-3.305.63-4.565 1.889z"/><path fill="#ddd" d="m432.299 445.615-6.77 6.722a6.362 6.362 0 0 0 0 9.053l22.438 22.248a6.496 6.496 0 0 0 9.128 0l6.77-6.718a6.35 6.35 0 0 0 0-9.049l-22.434-22.257a6.475 6.475 0 0 0-4.568-1.873 6.471 6.471 0 0 0-4.565 1.873z"/><path fill="#eee" d="M98.389 95.529c0 6.806 5.406 12.323 12.069 12.323 6.671 0 12.076-5.518 12.076-12.323 0-6.806-5.406-12.32-12.076-12.32-6.663 0-12.069 5.514-12.069 12.32zM151.258 176.234c-21.468 0-38.873 17.591-38.873 39.287l.004 108.306c34.221 3.725 57.805 5.582 70.754 5.582 20.047 0 63.779-13.163 89.274-20.463 3.238-.928 3.238-.928 6.524-1.877 48.631-14.012 72.709-13.421 124.963-4.654l.004-86.894c0-21.697-17.405-39.287-38.868-39.287H151.259zm5.786 71.554c0-14.734 11.894-26.684 26.563-26.684 14.673 0 26.563 11.95 26.563 26.684 0 14.738-11.89 26.688-26.563 26.688-14.669 0-26.563-11.95-26.563-26.688zm131.86 86.685-6.575 1.889c-28.396 8.137-75.032 21.844-99.185 21.844-15.56 0-39.144-1.849-70.75-5.554l-.008 6.911c0 21.697 17.405 39.284 38.873 39.284H365.04c21.464 0 38.868-17.587 38.868-39.284v-29.406l-.334 1.524c-24.517-4.217-41.53-6.788-57.816-6.788-17.123 0-33.452 2.837-56.855 9.581z"/></svg>