<svg width="512" height="512"><path fill="#eee" d="M464.273 228.344c0 10.018 8.12 18.142 18.137 18.142 10.018 0 18.137-8.124 18.137-18.142 0-10.014-8.12-18.142-18.137-18.142-10.018 0-18.137 8.128-18.137 18.142zM28.117 395.635c-4.382 0-7.949 3.563-7.949 7.949s3.567 7.953 7.949 7.953 7.949-3.567 7.949-7.953-3.567-7.949-7.949-7.949zm0 31.8c-13.154 0-23.851-10.701-23.851-23.851s10.697-23.851 23.851-23.851 23.851 10.701 23.851 23.851-10.697 23.851-23.851 23.851z"/><path fill="#f0f0f0" d="m476.211 444.091-22.899 22.899c-2.355 2.355-2.355 6.187 0 8.55l4.595 4.591a6.048 6.048 0 0 0 8.55 0l22.895-22.895a6.048 6.048 0 0 0 0-8.55l-4.595-4.595a6.028 6.028 0 0 0-4.271-1.771 6.029 6.029 0 0 0-4.275 1.771z"/><path fill="#f0f0f0" d="m459.656 460.647-6.344 6.344c-2.355 2.355-2.355 6.187 0 8.55l21.026 21.017a6.037 6.037 0 0 0 8.546 0l6.344-6.344a6.042 6.042 0 0 0 0-8.55l-21.022-21.017a6.032 6.032 0 0 0-8.55 0z"/><path fill="#ddd" d="m459.793 460.591-22.895 22.895a6.048 6.048 0 0 0 0 8.555l4.587 4.591a6.054 6.054 0 0 0 8.555 0l22.895-22.899a6.037 6.037 0 0 0 0-8.546l-4.591-4.595a6.044 6.044 0 0 0-4.279-1.767 6.022 6.022 0 0 0-4.271 1.767z"/><path fill="#ddd" d="m443.362 444.164-6.341 6.344a6.042 6.042 0 0 0 0 8.55l21.017 21.022a6.048 6.048 0 0 0 8.55 0l6.344-6.349a6.037 6.037 0 0 0 0-8.546l-21.017-21.022a6.048 6.048 0 0 0-4.279-1.771 6.035 6.035 0 0 0-4.275 1.771z"/><path fill="#eee" d="M56.123 104.388c0 6.681 5.414 12.091 12.092 12.091 6.681 0 12.096-5.41 12.096-12.091 0-6.677-5.415-12.091-12.096-12.091-6.678 0-12.091 5.415-12.091 12.091zM125.662 189.039c-21.709 0-39.304 17.6-39.304 39.304v139.256c0 21.709 17.596 39.305 39.304 39.305h197.854c21.7 0 39.3-17.596 39.3-39.305V228.343c0-21.704-17.6-39.304-39.3-39.304H125.662z"/><path fill="#eee" d="m387.827 239.065-16.649 8.849a36.272 36.272 0 0 0-19.247 32.034v38.298a36.277 36.277 0 0 0 19.247 32.034l16.649 8.849a21.144 21.144 0 0 0 9.933 2.474c11.687 0 21.163-9.472 21.163-21.163v-82.688c0-3.464-.853-6.874-2.479-9.933-3.801-7.155-11.132-11.234-18.701-11.234-3.353 0-6.754.798-9.916 2.479z"/><path fill="#fff" d="M222.835 262.622c-10.001 0-18.12 8.098-18.137 18.108l-.064 34.406a18.19 18.19 0 0 0 3.042 10.095c5.555 8.337 16.81 10.594 25.152 5.039l27.614-18.389a18.156 18.156 0 0 0 5.627-5.978c5.034-8.661 2.099-19.763-6.567-24.802l-27.546-16.022a18.2 18.2 0 0 0-9.088-2.457h-.034z"/></svg>