<svg width="512" height="512"><path fill="#f0f0f0" d="M415.611 446.605a6.268 6.268 0 0 0-6.267 6.267v10.743a6.267 6.267 0 0 0 6.267 6.267h60.714a6.263 6.263 0 0 0 6.267-6.267v-10.743a6.265 6.265 0 0 0-6.267-6.267h-60.714z"/><path fill="#ddd" d="M415.611 446.605a6.268 6.268 0 0 0-6.267 6.267v10.743a6.267 6.267 0 0 0 6.267 6.267h31.257v-3.26c0-9.118-5.679-16.904-13.692-20.019H415.61zM435.298 429.15c0 6.425 5.209 11.635 11.635 11.635 6.43 0 11.639-5.209 11.639-11.635 0-6.43-5.209-11.639-11.639-11.639-6.425 0-11.635 5.209-11.635 11.639z"/><path fill="#f0f0f0" d="M435.298 487.343c0 6.43 5.209 11.639 11.635 11.639 6.43 0 11.639-5.209 11.639-11.639s-5.209-11.639-11.639-11.639c-6.425 0-11.635 5.209-11.635 11.639z"/><path fill="#eee" d="M118.293 279.633c0 81.339 65.937 147.277 147.277 147.277 81.335 0 147.272-65.937 147.272-147.277 0-81.335-65.937-147.273-147.273-147.273-81.339 0-147.277 65.937-147.277 147.273z"/><path fill="#fff" d="M265.68 353.591a87.19 87.19 0 0 1-4.945-.137c-23.24-1.288-44.591-11.558-60.109-28.906-5.773-6.447-5.222-16.354 1.229-22.118 6.447-5.769 16.354-5.223 22.123 1.224 9.941 11.115 23.612 17.685 38.498 18.513 14.899.815 29.201-4.19 40.307-14.131a56.554 56.554 0 0 0 4.382-4.377c5.769-6.451 15.671-6.998 22.118-1.233 6.451 5.769 7.002 15.675 1.233 22.123a86.942 86.942 0 0 1-6.835 6.835c-16.115 14.421-36.548 22.208-58.001 22.208z"/><path fill="#f5f5f5" d="M459.849 210.696c0 12.118 9.817 21.935 21.93 21.935s21.935-9.817 21.935-21.935c0-12.109-9.822-21.93-21.935-21.93s-21.93 9.822-21.93 21.93z"/><path fill="#eee" d="M74.427 66.56c0 6.921 5.611 12.531 12.531 12.531 6.921 0 12.535-5.611 12.535-12.531 0-6.925-5.615-12.535-12.535-12.535-6.921 0-12.531 5.611-12.531 12.535zM28.117 352.969c-4.382 0-7.949 3.563-7.949 7.949s3.567 7.953 7.949 7.953 7.949-3.567 7.949-7.953-3.567-7.949-7.949-7.949zm0 31.799c-13.154 0-23.851-10.701-23.851-23.851s10.697-23.851 23.851-23.851 23.851 10.701 23.851 23.851-10.697 23.851-23.851 23.851z"/><path fill="#fff" d="M309.44 248.303c0 8.653 7.01 15.663 15.667 15.663 8.649 0 15.667-7.01 15.667-15.663 0-8.657-7.019-15.672-15.667-15.672-8.657 0-15.667 7.014-15.667 15.672zM190.366 248.303c0 8.653 7.014 15.663 15.667 15.663 8.653 0 15.667-7.01 15.667-15.663 0-8.657-7.014-15.672-15.667-15.672-8.653 0-15.667 7.014-15.667 15.672z"/></svg>