<svg width="512" height="512"><path fill="#eee" d="M427.627 208.746c0 10.705 8.678 19.383 19.384 19.383 10.701 0 19.379-8.678 19.379-19.383 0-10.701-8.678-19.379-19.379-19.379-10.705 0-19.384 8.678-19.384 19.379zM162.893 187.174c-24.986 0-45.875 18.995-48.239 43.865l-13.709 144.119a59.308 59.308 0 0 0-.26 5.509c0 32.115 26.035 58.151 58.151 58.151h161.707c1.843 0 3.682-.089 5.509-.264 31.97-3.038 55.424-31.42 52.382-63.394L364.73 231.041c-2.368-24.87-23.257-43.865-48.243-43.865H162.896z"/><path fill="#eee" d="M208.61 134.447c-3.576 0-7.13.529-10.547 1.57-19.114 5.824-29.897 26.048-24.069 45.162l.986 3.243c7.872 25.839 31.706 43.494 58.718 43.494h11.985c27.008 0 50.841-17.655 58.714-43.495l.986-3.243a36.015 36.015 0 0 0 1.57-10.543c0-19.985-16.2-36.19-36.181-36.19h-62.161z"/><path fill="#fff" d="M214.221 257.37c-6.984 3.716-9.638 12.39-5.922 19.379l7.245 13.654c.005 0 .008.005.008.009 3.712 6.981 12.374 9.617 19.35 5.909 6.984-3.725 9.634-12.394 5.922-19.384l-7.249-13.649c0-.005-.005-.009-.008-.013a14.308 14.308 0 0 0-12.638-7.586 14.2 14.2 0 0 0-6.707 1.681z"/><path fill="#fff" d="M244.185 263.274c-.005.005-.008.009-.008.013l-7.249 13.649c-3.712 6.989-1.058 15.659 5.927 19.384 6.971 3.707 15.633 1.071 19.35-5.909.005-.005.005-.009.005-.009l7.249-13.654c3.712-6.989 1.058-15.663-5.926-19.379a14.194 14.194 0 0 0-6.707-1.681 14.309 14.309 0 0 0-12.638 7.586z"/><path fill="#fff" d="M225.029 287.851v79.808c0 7.906 6.409 14.315 14.315 14.315s14.319-6.409 14.319-14.315v-79.808c0-7.911-6.413-14.315-14.319-14.315-7.906 0-14.315 6.404-14.315 14.315z"/><path fill="#f0f0f0" d="M447.625 456.474a6.464 6.464 0 0 0-6.464 6.459v6.938a6.464 6.464 0 0 0 6.464 6.459h34.599a6.46 6.46 0 0 0 6.459-6.459v-6.938a6.46 6.46 0 0 0-6.459-6.459h-34.599z"/><path fill="#f0f0f0" d="M447.625 456.474a6.464 6.464 0 0 0-6.464 6.459v31.761a6.461 6.461 0 0 0 6.464 6.459h9.587a6.457 6.457 0 0 0 6.459-6.459v-31.761a6.46 6.46 0 0 0-6.459-6.459h-9.587z"/><path fill="#ddd" d="M422.759 456.534a6.462 6.462 0 0 0-6.464 6.459v6.938a6.465 6.465 0 0 0 6.464 6.464h34.594a6.464 6.464 0 0 0 6.459-6.464v-6.938a6.46 6.46 0 0 0-6.459-6.459h-34.594z"/><path fill="#ddd" d="M447.761 431.71a6.454 6.454 0 0 0-6.455 6.459v31.761c0 3.567 2.889 6.464 6.455 6.464h9.591a6.464 6.464 0 0 0 6.459-6.464v-31.761a6.457 6.457 0 0 0-6.459-6.459h-9.591z"/><path fill="#eee" d="M107.814 66.611c0 7.138 5.785 12.919 12.924 12.919 7.134 0 12.919-5.781 12.919-12.919 0-7.138-5.785-12.924-12.919-12.924-7.138 0-12.924 5.785-12.924 12.924zM45.184 399.902c-4.382 0-7.949 3.563-7.949 7.949s3.567 7.953 7.949 7.953 7.949-3.567 7.949-7.953-3.567-7.949-7.949-7.949zm0 31.8c-13.154 0-23.851-10.701-23.851-23.851S32.03 384 45.184 384s23.85 10.701 23.85 23.851-10.697 23.851-23.85 23.851z"/><path fill="#fff" d="M204.856 282.726c-7.919 0-14.336 6.413-14.336 14.332 0 7.919 6.417 14.341 14.336 14.341h68.241c7.919 0 14.336-6.421 14.336-14.341 0-7.919-6.417-14.332-14.336-14.332h-68.241zM204.856 324.122c-7.919 0-14.336 6.421-14.336 14.341 0 7.919 6.417 14.336 14.336 14.336h68.241c7.919 0 14.336-6.417 14.336-14.336 0-7.919-6.417-14.341-14.336-14.341h-68.241z"/></svg>