<svg width="512" height="512"><path fill="#f0f0f0" d="M395.315 450.445a6.36 6.36 0 0 0-6.361 6.361v12.723a6.36 6.36 0 0 0 6.361 6.358h67.337a6.358 6.358 0 0 0 6.361-6.358v-12.723a6.359 6.359 0 0 0-6.361-6.361h-67.337z"/><path fill="#ddd" d="M395.315 450.445a6.36 6.36 0 0 0-6.361 6.361v12.723a6.36 6.36 0 0 0 6.361 6.358h34.654v-3.563c0-9.962-6.204-18.471-14.959-21.88h-19.695z"/><path fill="#eee" d="M458.658 192.866c0 12.297 9.971 22.263 22.259 22.263 12.296 0 22.264-9.967 22.264-22.263 0-12.292-9.967-22.259-22.264-22.259-12.288 0-22.259 9.967-22.259 22.259zM92.962 52.95c0 7.027 5.696 12.719 12.719 12.719s12.723-5.691 12.723-12.719c0-7.023-5.701-12.719-12.723-12.719-7.023 0-12.719 5.696-12.719 12.719zM29.363 385.259c-4.382 0-7.949 3.563-7.949 7.949s3.567 7.953 7.949 7.953 7.949-3.567 7.949-7.953-3.567-7.949-7.949-7.949zm0 31.799c-13.154 0-23.851-10.701-23.851-23.851s10.697-23.851 23.851-23.851 23.851 10.701 23.851 23.851-10.697 23.851-23.851 23.851zM89.779 278.724c0 82.547 66.918 149.462 149.462 149.462 82.547 0 149.462-66.914 149.462-149.462 0-82.538-66.914-149.457-149.462-149.457-82.543 0-149.462 66.918-149.462 149.457z"/><path fill="#fff" d="M156.335 233.779c-4.903 4.903-4.903 12.856 0 17.758l26.641 26.65c4.906 4.902 12.859 4.902 17.762 0 4.906-4.906 4.906-12.86 0-17.767l-26.641-26.641a12.543 12.543 0 0 0-8.883-3.678c-3.213 0-6.43 1.229-8.879 3.678z"/><path fill="#fff" d="m182.976 233.779-26.641 26.641c-4.903 4.906-4.903 12.86 0 17.767 4.903 4.902 12.856 4.902 17.762 0l26.641-26.649c4.906-4.903 4.906-12.856 0-17.758a12.543 12.543 0 0 0-8.883-3.678 12.534 12.534 0 0 0-8.879 3.678zM277.743 233.779c-4.906 4.903-4.906 12.856 0 17.758l26.646 26.65c4.902 4.902 12.856 4.902 17.762 0 4.902-4.906 4.902-12.86 0-17.767l-26.646-26.641a12.537 12.537 0 0 0-8.883-3.678 12.534 12.534 0 0 0-8.879 3.678z"/><path fill="#fff" d="m304.389 233.779-26.645 26.641c-4.906 4.906-4.906 12.86 0 17.767 4.906 4.902 12.86 4.902 17.762 0l26.646-26.649c4.902-4.903 4.902-12.856 0-17.758a12.537 12.537 0 0 0-8.883-3.678c-3.217 0-6.43 1.229-8.879 3.678zM270.672 349.411c-4.574 0-9.11-1.962-12.258-5.76a24.93 24.93 0 0 0-3.303-3.307c-5.12-4.228-11.571-6.216-18.193-5.598-6.613.623-12.591 3.789-16.828 8.904-5.594 6.762-15.62 7.714-22.387 2.108-6.762-5.598-7.71-15.62-2.107-22.387 9.651-11.661 23.266-18.863 38.34-20.284 15.065-1.416 29.794 3.111 41.455 12.766a56.814 56.814 0 0 1 7.518 7.518c5.602 6.762 4.659 16.785-2.103 22.387a15.851 15.851 0 0 1-10.134 3.652z"/></svg>