<svg width="512" height="512"><path fill="#f0f0f0" d="M431.594 445.764a5.938 5.938 0 0 0-5.935 5.939v10.171a5.932 5.932 0 0 0 5.935 5.93h57.489a5.93 5.93 0 0 0 5.93-5.93v-10.171a5.936 5.936 0 0 0-5.93-5.939h-57.489z"/><path fill="#ddd" d="M431.594 445.764a5.938 5.938 0 0 0-5.935 5.939v10.171a5.932 5.932 0 0 0 5.935 5.93h29.598v-3.085c0-8.635-5.38-16.009-12.966-18.957h-16.632zM450.236 429.24c0 6.084 4.933 11.021 11.017 11.021s11.021-4.937 11.021-11.021c0-6.089-4.937-11.021-11.021-11.021-6.084 0-11.017 4.933-11.017 11.021z"/><path fill="#f0f0f0" d="M450.236 484.339c0 6.08 4.933 11.017 11.017 11.017s11.021-4.937 11.021-11.017c0-6.093-4.937-11.021-11.021-11.021-6.084 0-11.017 4.928-11.017 11.021z"/><path fill="#eee" d="M155.456 130.432c-13.112 0-23.739 10.624-23.739 23.736v239.91c0 13.111 10.629 23.74 23.739 23.74h219.545c13.107 0 23.736-10.628 23.736-23.74V154.167c0-13.112-10.628-23.736-23.736-23.736H155.455z"/><path fill="#fff" d="M249.387 328.435c-8.746 0-15.842 7.087-15.842 15.838 0 8.747 7.095 15.838 15.842 15.838h95.04c8.747 0 15.842-7.091 15.842-15.838 0-8.751-7.096-15.838-15.842-15.838h-95.04zM250.518 258.283c-9.369 0-16.973 7.603-16.973 16.973s7.603 16.973 16.973 16.973h92.779c9.37 0 16.973-7.603 16.973-16.973s-7.603-16.973-16.973-16.973h-92.779zM187.157 188.135c-9.369 0-16.973 7.599-16.973 16.969 0 9.374 7.603 16.973 16.973 16.973h6.792c9.374 0 16.969-7.599 16.969-16.973 0-9.369-7.595-16.969-16.969-16.969h-6.792zM187.157 258.283c-9.369 0-16.973 7.603-16.973 16.973s7.603 16.973 16.973 16.973h6.792c9.374 0 16.969-7.603 16.969-16.973s-7.595-16.973-16.969-16.973h-6.792zM250.518 188.135c-9.369 0-16.973 7.599-16.973 16.969 0 9.374 7.603 16.973 16.973 16.973h92.779c9.37 0 16.973-7.599 16.973-16.973 0-9.369-7.603-16.969-16.973-16.969h-92.779zM190.56 360.798a17.373 17.373 0 0 1-10.569-3.558l-5.099-3.891a10.024 10.024 0 0 1-3.874-6.673 10.002 10.002 0 0 1 1.98-7.454c3.494-4.476 9.877-5.299 14.306-1.92l.601.457a3.089 3.089 0 0 0 4.181-.409l5.125-5.811c3.691-4.177 10.125-4.616 14.34-.981a10.033 10.033 0 0 1 3.477 6.899 10.046 10.046 0 0 1-2.423 7.33l-8.922 10.12c-3.426 3.887-8.256 5.892-13.125 5.892z"/><path fill="#eee" d="M90.18 57.745c0 6.55 5.317 11.866 11.87 11.866 6.553 0 11.865-5.317 11.865-11.865 0-6.553-5.312-11.87-11.865-11.87s-11.87 5.316-11.87 11.87z"/><path fill="#f5f5f5" d="M452.139 171.968c0 11.469 9.301 20.766 20.77 20.766s20.766-9.297 20.766-20.766c0-11.473-9.297-20.77-20.766-20.77-11.469 0-20.77 9.297-20.77 20.77z"/><path fill="#eee" d="M36.651 387.102c-4.382 0-7.949 3.563-7.949 7.949s3.567 7.953 7.949 7.953 7.949-3.567 7.949-7.953-3.567-7.949-7.949-7.949zm0 31.799c-13.154 0-23.851-10.701-23.851-23.851s10.697-23.851 23.851-23.851S60.502 381.9 60.502 395.05s-10.697 23.851-23.85 23.851z"/></svg>