<svg width="512" height="512"><path fill="#f0f0f0" d="M409.531 446.152a6.118 6.118 0 0 0-6.118 6.118v10.479a6.118 6.118 0 0 0 6.118 6.118h59.238a6.117 6.117 0 0 0 6.114-6.118V452.27a6.117 6.117 0 0 0-6.114-6.118h-59.238z"/><path fill="#ddd" d="M409.531 446.152a6.118 6.118 0 0 0-6.118 6.118v10.479a6.118 6.118 0 0 0 6.118 6.118h30.498v-3.183c0-8.892-5.543-16.49-13.359-19.533h-17.139zM428.736 429.125c0 6.267 5.086 11.353 11.353 11.353 6.276 0 11.362-5.086 11.362-11.353 0-6.272-5.086-11.358-11.362-11.358-6.267 0-11.353 5.086-11.353 11.358z"/><path fill="#f0f0f0" d="M428.736 485.897c0 6.272 5.086 11.358 11.353 11.358 6.276 0 11.362-5.086 11.362-11.358 0-6.267-5.086-11.353-11.362-11.353-6.267 0-11.353 5.086-11.353 11.353z"/><path fill="#eee" d="M128.115 139.571c-16.888 0-30.575 13.688-30.575 30.571v233.651c0 16.883 13.688 30.57 30.575 30.57h212.757c16.887 0 30.57-13.688 30.57-30.57V170.142c0-16.883-13.683-30.571-30.57-30.571H128.115z"/><path fill="#fff" d="M153.25 341.517c-8.973 0-16.243 7.274-16.243 16.248 0 8.973 7.27 16.252 16.243 16.252h97.493c8.973 0 16.252-7.279 16.252-16.252 0-8.973-7.279-16.248-16.251-16.248H153.25zM153.25 271.88c-8.973 0-16.243 7.271-16.243 16.248 0 8.973 7.27 16.248 16.243 16.248h162.488c8.973 0 16.248-7.274 16.248-16.248 0-8.977-7.274-16.248-16.248-16.248H153.25zM153.25 202.244c-8.973 0-16.243 7.274-16.243 16.248 0 8.973 7.27 16.251 16.243 16.251h162.488c8.973 0 16.248-7.279 16.248-16.251 0-8.973-7.274-16.248-16.248-16.248H153.25z"/><path fill="#eee" d="M458.283 179.311c0 11.819 9.579 21.401 21.401 21.401 11.819 0 21.397-9.583 21.397-21.401 0-11.819-9.579-21.398-21.397-21.398-11.823 0-21.401 9.578-21.401 21.398zM125.056 60.083c0 6.754 5.474 12.233 12.229 12.233 6.754 0 12.232-5.478 12.232-12.233 0-6.754-5.478-12.224-12.232-12.224s-12.228 5.47-12.228 12.224zM28.117 352.969c-4.382 0-7.949 3.563-7.949 7.949s3.567 7.953 7.949 7.953 7.949-3.567 7.949-7.953-3.567-7.949-7.949-7.949zm0 31.799c-13.154 0-23.851-10.701-23.851-23.851s10.697-23.851 23.851-23.851 23.851 10.701 23.851 23.851-10.697 23.851-23.851 23.851z"/></svg>