<svg width="512" height="512"><path fill="#eee" d="M465.339 223.113c0 10.555 8.559 19.119 19.119 19.119 10.555 0 19.115-8.563 19.115-19.119 0-10.56-8.559-19.119-19.115-19.119-10.56 0-19.119 8.559-19.119 19.119zM28.117 399.902c-4.382 0-7.949 3.563-7.949 7.949s3.567 7.953 7.949 7.953 7.949-3.567 7.949-7.953-3.567-7.949-7.949-7.949zm0 31.8c-13.154 0-23.851-10.701-23.851-23.851S14.963 384 28.117 384s23.851 10.701 23.851 23.851-10.697 23.851-23.851 23.851zM130.782 181.691c-14.08 0-25.493 11.409-25.493 25.489v193.468c0 3.575 1.011 7.091 2.906 10.129 5.594 8.952 17.391 11.678 26.346 6.08l22.938-14.332a95.571 95.571 0 0 1 50.654-14.528h177.549c14.075 0 25.489-11.413 25.489-25.489V207.18c0-14.08-11.413-25.489-25.489-25.489H130.783zm23.731 67.09c0-9.72 7.881-17.6 17.6-17.6h172.233c9.724 0 17.605 7.881 17.605 17.6 0 9.719-7.88 17.6-17.605 17.6H172.114c-9.72 0-17.6-7.88-17.6-17.6zm0 70.404c0-9.724 7.881-17.604 17.6-17.604h98.402c9.719 0 17.605 7.88 17.605 17.605 0 9.719-7.885 17.6-17.605 17.6h-98.402c-9.72 0-17.6-7.88-17.6-17.6zM92.549 95.663c0 7.04 5.704 12.745 12.74 12.745 7.04 0 12.749-5.704 12.749-12.745 0-7.04-5.709-12.745-12.749-12.745-7.035 0-12.74 5.704-12.74 12.745z"/><path fill="#f0f0f0" d="M401.869 449.336a6.375 6.375 0 0 0-6.375 6.375v12.745c0 3.52 2.854 6.37 6.375 6.37h67.469c3.52 0 6.375-2.85 6.375-6.37v-12.745a6.375 6.375 0 0 0-6.375-6.375h-67.469z"/><path fill="#ddd" d="M401.869 449.336a6.375 6.375 0 0 0-6.375 6.375v12.745c0 3.52 2.854 6.37 6.375 6.37h34.722v-3.571c0-9.979-6.221-18.509-14.993-21.918h-19.729z"/></svg>